<svg id="svg2" xmlns="http://www.w3.org/2000/svg" viewBox="0 0 40 40"><g id="Group_807" data-name="Group 807"><path id="Path_162" data-name="Path 162" d="M38.76,1.15A.55.55,0,0,0,38.35,1l-7.24,0h0a.66.66,0,0,0-.57.59c0,.1-.38,2.61-2.73,2.61h0A2.82,2.82,0,0,1,25,1.6.65.65,0,0,0,24.44,1L17.19.91a.55.55,0,0,0-.58.52V5.78L15.29,6a.59.59,0,0,0-.49.59,2.86,2.86,0,0,1-2.26,3,2.94,2.94,0,0,1-.59,0,2.82,2.82,0,0,1-2.6-2.06.58.58,0,0,0-.66-.42L1.55,8.32A.58.58,0,0,0,1.07,9h0l5.1,29.62a.57.57,0,0,0,.57.48h.1l7.33-1.26a.58.58,0,0,0,.48-.59,2.77,2.77,0,0,1,5.45-1,.58.58,0,0,0,.67.43L27.7,35.5a.57.57,0,0,0,.47-.67l-1-5.82a3,3,0,0,1,1-.09,2.81,2.81,0,0,1,2.45,2.67.6.6,0,0,0,.58.56l7,0h0a.6.6,0,0,0,.58-.6l.09-30A.58.58,0,0,0,38.76,1.15Zm-17.7,34.3a3.79,3.79,0,0,0-3.95-2.56,3.91,3.91,0,0,0-3.62,3.87L7.21,37.84,3.69,17.37l1-.17a.58.58,0,0,0-.19-1.15l-1,.18L2.31,9.38l6.1-1a3.87,3.87,0,0,0,3.53,2.41,4.22,4.22,0,0,0,.79-.07,3.88,3.88,0,0,0,3.21-3.63L22,6l1.18,6.81-1,.16a.59.59,0,0,0-.49.67.6.6,0,0,0,.59.49h.1L23.4,14l3.52,20.47ZM31.73,31a3.81,3.81,0,0,0-3.45-3.21,5.19,5.19,0,0,0-1.47.11L24.12,13.22h0l-.35-2.8,1.17.22h0c.32,0,.59-.48.59-.8a.71.71,0,0,0-.59-.7l-1.2-.06-.66-3.8a.6.6,0,0,0-.67-.5l-4.66.8V2l6.18.2a3.94,3.94,0,0,0,3.85,3.2h0a4,4,0,0,0,3.78-3.17l6.19-.06,0,7.07-1,.15h0c-.32,0-.59.07-.59.39s.26.49.58.49l1-.05L37.68,31Z"/><path id="Path_163" data-name="Path 163" d="M32.83,9.24l-3.95.19h0c-.32,0-.58.06-.58.38a.7.7,0,0,0,.58.7l3.95.12h0a.7.7,0,0,0,0-1.39Z"/><path id="Path_164" data-name="Path 164" d="M11.62,14.83l-3.54.61a.58.58,0,0,0-.49.66.59.59,0,0,0,.58.5h.1L11.82,16a.59.59,0,0,0,.47-.68.57.57,0,0,0-.67-.47Z"/><path id="Path_165" data-name="Path 165" d="M18.7,13.61l-3.54.61a.58.58,0,0,0-.48.66.58.58,0,0,0,.58.5h.1l3.54-.61a.6.6,0,0,0,.48-.68.58.58,0,0,0-.67-.47h0Z"/></g></svg>