<svg id="svg2" xmlns="http://www.w3.org/2000/svg" viewBox="0 0 40 40"><defs><style>.cls-1{fill-rule:evenodd;}</style></defs><path id="Path_168" data-name="Path 168" class="cls-1" d="M37.1,10.68a4.94,4.94,0,0,0-.63-4.06C35.22,5.05,32.57,5,30.75,5.27A12,12,0,0,0,22.57,13c3-.23,4.59.22,4.3,3.54a12.2,12.2,0,0,1-1.6,4.36c-.91,1.69-2.6,5-4.83,2.61-2-2.15-1.85-6.24-2.31-9a37.38,37.38,0,0,0-1-5,5.09,5.09,0,0,0-2.64-3.33A5.33,5.33,0,0,0,10.62,7a69,69,0,0,0-7.9,6.35v.2c.51.49.65,1.3,1.41,1.41,1.79.26,3.5-1.67,4.69.34a20.89,20.89,0,0,1,1.41,3.9c.62,1.77,1.1,3.69,1.61,5.72.86,3.44,1.9,8.57,4.88,9.83a6.41,6.41,0,0,0,5-.9,27.66,27.66,0,0,0,7.64-7.26A49.29,49.29,0,0,0,37.1,10.68Z"/></svg>