<svg id="svg2" xmlns="http://www.w3.org/2000/svg" xmlns:xlink="http://www.w3.org/1999/xlink" viewBox="0 0 40 40"><defs><style>.cls-1{fill:none;}.cls-2{clip-path:url(#clip-path);}.cls-3{fill:#ff0014;}</style><clipPath id="clip-path"><rect class="cls-1" x="3.75" y="3.75" width="32.5" height="32.5"/></clipPath></defs><g class="cls-2"><g id="Group_283" data-name="Group 283"><g id="Group_282" data-name="Group 282"><path id="Path_163" data-name="Path 163" class="cls-3" d="M36.25,27.3V12.7s0-8.95-8.95-8.95H12.7s-8.95,0-8.95,9V27.3s0,9,9,9H27.3s9,0,9-8.95m-3-.93c0,6.87-6.87,6.87-6.87,6.87H13.62c-6.86,0-6.86-6.87-6.86-6.87V13.63c0-6.87,6.86-6.87,6.86-6.87H26.37c6.87,0,6.87,6.87,6.87,6.87Zm-3-14.6a1.69,1.69,0,1,0-1.69,1.69,1.69,1.69,0,0,0,1.69-1.69h0M27.47,20A7.47,7.47,0,1,0,20,27.47,7.47,7.47,0,0,0,27.47,20m-3.09,0A4.39,4.39,0,1,1,20,15.62h0A4.38,4.38,0,0,1,24.38,20"/></g></g></g></svg>