<svg id="svg2" xmlns="http://www.w3.org/2000/svg" viewBox="0 0 40 40"><defs><style>.cls-1,.cls-2{fill:none;stroke:#ff0014;}.cls-2{stroke-linecap:round;}</style></defs><path class="cls-1" d="M24.11,38H10.32A4.55,4.55,0,0,1,5.77,33.4V6.6A4.55,4.55,0,0,1,10.32,2H29.68A4.55,4.55,0,0,1,34.23,6.6V28.7Z"/><path class="cls-2" d="M24.4,22.17s1.29,2.68,3.93,2.34,1.73-3.43-.49-3.05S16.55,23.88,11.6,27.14c-3.62,2.39.08,5,1.35,2.63s5.27-9.67,6.94-17.07-2.77-6-2.28-2.87C17.84,11.31,21.12,19.16,24.4,22.17Z"/><path class="cls-2" d="M23.32,38V31.74a3,3,0,0,1,3-3h7.87"/></svg>