<svg id="svg2" xmlns="http://www.w3.org/2000/svg" viewBox="0 0 171.51 139.38"><defs><style>.cls-2{fill:none;stroke:#000;stroke-width:3px;stroke-linecap:round}</style></defs><path d="M93.59 103.91H67.31a8.68 8.68 0 01-8.68-8.68V44.15a8.68 8.68 0 018.68-8.68h36.89a8.68 8.68 0 018.68 8.68v42.12z" stroke="#000" stroke-width="3" fill="none"/><path class="cls-2" d="M94.14 73.83s2.45 5.11 7.49 4.46 3.31-6.55-.94-5.83-21.51 4.62-30.94 10.84c-6.9 4.56.15 9.48 2.56 5s10-18.44 13.24-32.54-5.29-11.51-4.36-5.47c.44 2.85 6.69 17.8 12.95 23.54zm-2.06 30.08V92.06a5.79 5.79 0 015.79-5.79h15"/><circle cx="112.84" cy="53.59" r="13.46" fill="#fff" stroke-miterlimit="10" stroke="#000" stroke-width="3"/><path id="Path_243" data-name="Path 243" class="cls-2" d="M118.67 55.43l-5.48 5.24a.28.28 0 01-.38 0l-5.72-5.24"/><path id="Line_32" data-name="Line 32" class="cls-2" d="M112.99 60.5V46.44"/></svg>