<svg viewBox="0 0 172 140" xmlns="http://www.w3.org/2000/svg" fill-rule="evenodd" clip-rule="evenodd" stroke-linejoin="round" stroke-miterlimit="2"><path d="M93.59 103.91H67.31c-4.762 0-8.68-3.918-8.68-8.68V44.15c0-4.762 3.918-8.68 8.68-8.68h36.89c4.762 0 8.68 3.918 8.68 8.68v42.12l-19.29 17.64z" fill="none" fill-rule="nonzero" stroke="red" stroke-width="2"/><path d="M94.14 73.83s2.45 5.11 7.49 4.46c5.04-.65 3.31-6.55-.94-5.83-4.25.72-21.51 4.62-30.94 10.84-6.9 4.56.15 9.48 2.56 5s10-18.44 13.24-32.54c3.24-14.1-5.29-11.51-4.36-5.47.44 2.85 6.69 17.8 12.95 23.54zm-2.06 30.08V92.06c0-3.176 2.614-5.79 5.79-5.79h15" fill="none" fill-rule="nonzero" stroke="red" stroke-width="2"/></svg>