<svg id="svg2" xmlns="http://www.w3.org/2000/svg" viewBox="0 0 171.51 139.38"><defs><style>.cls-1,.cls-2{fill:none;}.cls-1,.cls-2,.cls-3{stroke:#000;stroke-width:3px;}.cls-2{stroke-linecap:round;}.cls-3{fill:#fff;stroke-miterlimit:10;}</style></defs><path class="cls-1" d="M93.59,103.91H67.31a8.68,8.68,0,0,1-8.68-8.68V44.15a8.68,8.68,0,0,1,8.68-8.68H104.2a8.68,8.68,0,0,1,8.68,8.68V86.27Z"/><path class="cls-2" d="M94.14,73.83s2.45,5.11,7.49,4.46,3.31-6.55-.94-5.83S79.18,77.08,69.75,83.3c-6.9,4.56.15,9.48,2.56,5s10-18.44,13.24-32.54-5.29-11.51-4.36-5.47C81.63,53.14,87.88,68.09,94.14,73.83Z"/><path class="cls-2" d="M92.08,103.91V92.06a5.79,5.79,0,0,1,5.79-5.79h15"/><circle class="cls-3" cx="112.84" cy="53.59" r="13.46"/><path id="Path_243" data-name="Path 243" class="cls-2" d="M118.67,55.43l-5.48,5.24a.28.28,0,0,1-.38,0l-5.72-5.24"/><line id="Line_32" data-name="Line 32" class="cls-2" x1="112.99" y1="60.5" x2="112.99" y2="46.44"/></svg>