<svg id="svg2" xmlns="http://www.w3.org/2000/svg" viewBox="0 0 40 40"><defs><style>.cls-1,.cls-2{fill:none;}.cls-1,.cls-2,.cls-3{stroke:#000;}.cls-2{stroke-linecap:round;}.cls-3{fill:#fff;stroke-miterlimit:10;}</style></defs><path class="cls-1" d="M22,37.88H8.26a4.54,4.54,0,0,1-4.54-4.54V6.59A4.55,4.55,0,0,1,8.26,2H27.58a4.55,4.55,0,0,1,4.55,4.55V28.65Z"/><path class="cls-2" d="M22.32,22.13s1.28,2.68,3.91,2.34,1.74-3.43-.48-3S14.48,23.83,9.54,27.09c-3.61,2.39.08,5,1.34,2.62s5.26-9.65,6.94-17-2.77-6-2.28-2.87C15.76,11.29,19,19.13,22.32,22.13Z"/><path class="cls-2" d="M21.24,37.88v-6.2a3,3,0,0,1,3-3h7.86"/><circle class="cls-3" cx="32.11" cy="11.53" r="7.05"/><path id="Path_243" data-name="Path 243" class="cls-2" d="M35.16,12.49l-2.87,2.75a.15.15,0,0,1-.2,0l-3-2.75"/><line id="Line_32" data-name="Line 32" class="cls-2" x1="32.19" y1="15.15" x2="32.19" y2="7.79"/></svg>