<svg xmlns="http://www.w3.org/2000/svg" viewBox="0 0 40 40"><defs><clipPath id="a"><path fill="none" d="M3.75 3.75h32.5v32.5H3.75z"/></clipPath></defs><g data-name="Group 283"><g data-name="Group 282" clip-path="url(#a)"><path data-name="Path 163" d="M36.25 27.3V12.7s0-8.95-8.95-8.95H12.7s-8.95 0-8.95 9V27.3s0 9 9 9H27.3s9 0 9-8.95m-3-.93c0 6.87-6.87 6.87-6.87 6.87H13.62c-6.86 0-6.86-6.87-6.86-6.87V13.63c0-6.87 6.86-6.87 6.86-6.87h12.75c6.87 0 6.87 6.87 6.87 6.87zm-3-14.6a1.69 1.69 0 10-1.69 1.69 1.69 1.69 0 001.69-1.69M27.47 20A7.47 7.47 0 1020 27.47 7.47 7.47 0 0027.47 20m-3.09 0A4.39 4.39 0 1120 15.62 4.38 4.38 0 0124.38 20"/></g></g></svg>