<svg id="svg2" xmlns="http://www.w3.org/2000/svg" viewBox="0 0 40 40"><defs><style>.cls-1{fill:#ff0014}</style></defs><g id="Group_807" data-name="Group 807"><path id="Path_162" data-name="Path 162" class="cls-1" d="M38.76 1.15a.55.55 0 00-.41-.15h-7.24a.66.66 0 00-.57.59c0 .1-.38 2.61-2.73 2.61A2.82 2.82 0 0125 1.6a.65.65 0 00-.56-.6L17.19.91a.55.55 0 00-.58.52v4.35L15.29 6a.59.59 0 00-.49.59 2.86 2.86 0 01-2.26 3 2.94 2.94 0 01-.59 0 2.82 2.82 0 01-2.6-2.06.58.58 0 00-.66-.42L1.55 8.32a.58.58 0 00-.48.68l5.1 29.62a.57.57 0 00.57.48h.1l7.33-1.26a.58.58 0 00.48-.59 2.77 2.77 0 015.45-1 .58.58 0 00.67.43l6.93-1.18a.57.57 0 00.47-.67l-1-5.82a3 3 0 011-.09 2.81 2.81 0 012.45 2.67.6.6 0 00.58.56h7a.6.6 0 00.58-.6l.09-30a.58.58 0 00-.11-.4zm-17.7 34.3a3.79 3.79 0 00-3.95-2.56 3.91 3.91 0 00-3.62 3.87l-6.28 1.08-3.52-20.47 1-.17a.58.58 0 00-.19-1.15l-1 .18-1.19-6.85 6.1-1a3.87 3.87 0 003.53 2.41 4.22 4.22 0 00.79-.07 3.88 3.88 0 003.21-3.63L22 6l1.18 6.81-1 .16a.59.59 0 00-.49.67.6.6 0 00.59.49h.1L23.4 14l3.52 20.47zM31.73 31a3.81 3.81 0 00-3.45-3.21 5.19 5.19 0 00-1.47.11l-2.69-14.68-.35-2.8 1.17.22c.32 0 .59-.48.59-.8a.71.71 0 00-.59-.7l-1.2-.06-.66-3.8a.6.6 0 00-.67-.5l-4.66.8V2l6.18.2a3.94 3.94 0 003.85 3.2 4 4 0 003.78-3.17l6.19-.06v7.07l-1 .15c-.32 0-.59.07-.59.39s.26.49.58.49l1-.05L37.68 31z"/><path id="Path_163" data-name="Path 163" class="cls-1" d="M32.83 9.24l-3.95.19c-.32 0-.58.06-.58.38a.7.7 0 00.58.7l3.95.12a.7.7 0 000-1.39z"/><path id="Path_164" data-name="Path 164" class="cls-1" d="M11.62 14.83l-3.54.61a.58.58 0 00-.49.66.59.59 0 00.58.5h.1l3.55-.6a.59.59 0 00.47-.68.57.57 0 00-.67-.47z"/><path id="Path_165" data-name="Path 165" class="cls-1" d="M18.7 13.61l-3.54.61a.58.58 0 00-.48.66.58.58 0 00.58.5h.1l3.54-.61a.6.6 0 00.48-.68.58.58 0 00-.67-.47z"/></g></svg>