<svg xmlns="http://www.w3.org/2000/svg" viewBox="0 0 40 40"><path data-name="Path 168" d="M37.1 10.68a4.94 4.94 0 00-.63-4.06c-1.25-1.57-3.9-1.62-5.72-1.35A12 12 0 0022.57 13c3-.23 4.59.22 4.3 3.54a12.2 12.2 0 01-1.6 4.36c-.91 1.69-2.6 5-4.83 2.61-2-2.15-1.85-6.24-2.31-9a37.38 37.38 0 00-1-5 5.09 5.09 0 00-2.64-3.33 5.33 5.33 0 00-3.87.82 69 69 0 00-7.9 6.35v.2c.51.49.65 1.3 1.41 1.41 1.79.26 3.5-1.67 4.69.34a20.89 20.89 0 011.41 3.9c.62 1.77 1.1 3.69 1.61 5.72.86 3.44 1.9 8.57 4.88 9.83a6.41 6.41 0 005-.9 27.66 27.66 0 007.64-7.26 49.29 49.29 0 007.74-15.91z" fill-rule="evenodd"/></svg>