<svg id="svg2" xmlns="http://www.w3.org/2000/svg" viewBox="0 0 40 40"><defs><style>.cls-2{fill:none;stroke:#000;stroke-linecap:round}</style></defs><path d="M22 37.88H8.26a4.54 4.54 0 01-4.54-4.54V6.59A4.55 4.55 0 018.26 2h19.32a4.55 4.55 0 014.55 4.55v22.1z" stroke="#000" fill="none"/><path class="cls-2" d="M22.32 22.13s1.28 2.68 3.91 2.34 1.74-3.43-.48-3-11.27 2.36-16.21 5.62c-3.61 2.39.08 5 1.34 2.62s5.26-9.65 6.94-17-2.77-6-2.28-2.87c.22 1.45 3.46 9.29 6.78 12.29zm-1.08 15.75v-6.2a3 3 0 013-3h7.86"/><circle cx="32.11" cy="11.53" r="7.05" fill="#fff" stroke-miterlimit="10" stroke="#000"/><path id="Path_243" data-name="Path 243" class="cls-2" d="M35.16 12.49l-2.87 2.75a.15.15 0 01-.2 0l-3-2.75"/><path id="Line_32" data-name="Line 32" class="cls-2" d="M32.19 15.15V7.79"/></svg>