<svg id="svg2" xmlns="http://www.w3.org/2000/svg" viewBox="0 0 171.51 139.38"><defs><style>.cls-1{stroke:#000;stroke-width:.75px}</style></defs><g id="Group_807" data-name="Group 807"><path id="Path_162" data-name="Path 162" class="cls-1" d="M118.54 35.3a1.08 1.08 0 00-.79-.24l-14 .06a1.28 1.28 0 00-1.12 1.12c0 .2-.73 5.06-5.26 5.06A5.45 5.45 0 0192 36.17 1.27 1.27 0 0090.84 35l-14-.18a1.08 1.08 0 00-1.14 1v8.42l-2.55.43a1.14 1.14 0 00-.94 1.15 5.55 5.55 0 01-4.38 5.73 7.34 7.34 0 01-1.15.1 5.49 5.49 0 01-5-4 1.14 1.14 0 00-1.27-.83l-13.85 2.36a1.12 1.12 0 00-.93 1.29l9.85 57.28a1.13 1.13 0 001.11.93.67.67 0 00.2 0L71 106.26a1.13 1.13 0 00.93-1.15 5.36 5.36 0 0110.55-1.9 1.14 1.14 0 001.29.85l13.4-2.31a1.12 1.12 0 00.92-1.3l-1.97-11.27a6 6 0 012-.16 5.45 5.45 0 014.75 5.16 1.16 1.16 0 001.13 1.09l13.61.07a1.16 1.16 0 001.12-1.16l.17-58a1.12 1.12 0 00-.36-.88zm-34.25 66.36a7.35 7.35 0 00-7.64-5 7.58 7.58 0 00-7 7.49l-12.13 2.09-6.83-39.55 2-.34a1.13 1.13 0 00-.38-2.22l-2 .34L48 51.21l11.79-2a7.5 7.5 0 006.83 4.66 9.67 9.67 0 001.53-.13 7.5 7.5 0 006.2-7l11.8-2 2.26 13.17-1.85.32a1.13 1.13 0 00.19 2.24H87l1.85-.32 6.81 39.58zM104.94 93a7.37 7.37 0 00-6.68-6.21 10.51 10.51 0 00-2.85.2l-5.19-28.3-.68-5.43 2.27.43c.62 0 1.12-.93 1.12-1.55a1.35 1.35 0 00-1.12-1.35l-2.33-.11-1.28-7.39a1.17 1.17 0 00-.46-.76 1.13 1.13 0 00-.84-.2l-9 1.54V37l12 .39a7.63 7.63 0 007.46 6.19 7.71 7.71 0 007.32-6.14l12-.11V51l-1.88.3c-.62 0-1.12.13-1.12.75s.5.94 1.12 1l1.87-.1-.23 40.05z"/><path id="Path_163" data-name="Path 163" class="cls-1" d="M107.06 51l-7.64.37c-.62 0-1.12.11-1.12.73a1.34 1.34 0 001.12 1.34l7.64.24a1.35 1.35 0 000-2.69z"/><path id="Path_164" data-name="Path 164" class="cls-1" d="M66 61.76l-6.86 1.18a1.13 1.13 0 00.19 2.24h.19l6.9-1.18a1.13 1.13 0 10-.42-2.22z"/><path id="Path_165" data-name="Path 165" class="cls-1" d="M79.74 59.41l-6.86 1.17a1.13 1.13 0 00-.88 1.29 1.11 1.11 0 001.12 1h.2l6.85-1.18a1.11 1.11 0 00.92-1.3 1.13 1.13 0 00-1.3-.92z"/></g></svg>